<svg xmlns="http://www.w3.org/2000/svg" viewBox="0 0 300 300"><path fill="#966df3" d="M174.9 223l-13.4-.3-.5 22.4 13.4.3.2-8.4 8.2.4.1-5.7-8.2-.4zM194.5 232l-6.1-.1-.1 5.7 6.1.1 1.7-1.6v-2.4l-1.6-1.7zM156.5 222.7l-27.1-.6-6.2 5.9v1.2l-3.7-.1-.2 8 3.7.1v1.2l5.9 6.2 27.1.6.5-22.5z"/><path fill="#966df3" d="M137.5 242.7c-9.9 0-20.2-2.4-28.8-7.1-8.6-4.7-18.5-12.8-29.6-24.2-14.9-.8-28.2-4.7-40.2-11.9-11.9-7.2-21.2-16.8-27.9-28.7S1 145.6 1 131.1c0-15.2 3.6-28.9 10.9-41.2C19.3 77.6 29.3 67.9 42 61c12.7-7 27.1-10.5 43-10.5 15.8 0 30 3.5 42.8 10.5 12.7 7 22.7 16.6 29.9 28.8s10.8 26 10.8 41.3c0 12.9-2.6 24.8-7.8 35.6s-12.5 19.9-21.8 27.2c-9.4 7.4-20.1 12.5-32.3 15.3 5.2 5.5 10.3 9.6 15.2 12 4.9 2.5 9.9 3.7 15 3.7M31.6 162c5.3 9.2 12.7 16.5 22.1 21.7 9.4 5.3 19.8 7.9 31.4 7.9 11.4 0 21.7-2.6 31.1-7.9 9.3-5.2 16.6-12.5 21.9-21.7 5.3-9.2 8-19.5 8-30.9s-2.7-21.7-8-30.9-12.6-16.5-21.9-21.7c-9.3-5.2-19.7-7.9-31.1-7.9-11.6 0-22 2.6-31.4 7.9C44.3 83.8 37 91 31.6 100.2c-5.3 9.2-8 19.5-8 30.9s2.6 21.7 8 30.9z"/><path d="M96.8 95h-25c-1.4 0-2.6-1.2-2.6-2.6v-5c0-1.4 1.2-2.6 2.6-2.6h25c1.4 0 2.6 1.2 2.6 2.6v5c0 1.5-1.2 2.6-2.6 2.6zm23 20.6h-71c-1.4 0-2.6-1.2-2.6-2.6v-5c0-1.4 1.2-2.6 2.6-2.6h71.1c1.4 0 2.6 1.2 2.6 2.6v5c-.1 1.4-1.2 2.6-2.7 2.6zm10.1 20.6H39.6c-1.4 0-2.6-1.2-2.6-2.6v-5c0-1.4 1.2-2.6 2.6-2.6h90.3c1.4 0 2.6 1.2 2.6 2.6v5c0 1.4-1.2 2.6-2.6 2.6zm-32.6 42.7h-25c-1.4 0-2.6-1.2-2.6-2.6v-5c0-1.4 1.2-2.6 2.6-2.6h25c1.4 0 2.6 1.2 2.6 2.6v5c0 1.4-1.2 2.6-2.6 2.6zm23-21.3H49.2c-1.4 0-2.6-1.2-2.6-2.6v-5c0-1.4 1.2-2.6 2.6-2.6h71.1c1.4 0 2.6 1.2 2.6 2.6v5c0 1.4-1.2 2.6-2.6 2.6zm151.8-90.9l-111.9-.3c8.3 7.7 11.2 12.8 17 23.1 7 12.3 9 26 8.9 41.3-.1 12.9-.1 22.1-5.8 35.6-4.9 11.5-8.2 17.6-17.9 27.2-.3.3-.7.5-1.1.8h33.3c1.4 0 2.6.9 3 2.2l6.4 20.6c.1.2.1.5.1.8.1 2.7 1.2 5.3 3.2 7.3 4.2 4 10.8 3.9 14.8-.2l29.8-29.6c.6-.6 1.4-.9 2.2-.9h15c17.2 0 31.1-13.9 31.1-31.1V94.7c-.2-15.4-12.7-28-28.1-28zm-29.5 60.5l-6.7 5.6 2.1 8.4c.4 1.6-1.4 2.8-2.6 1.9l-7.4-4.6-7.4 4.4c-1.4.9-3.2-.4-2.6-1.9l2.1-8.4-6.7-5.4c-1.2-1.1-.5-3.2 1.1-3.2l8.6-.7 3.3-8.1c.5-1.6 2.8-1.6 3.3 0l3.3 8.1 8.6.7c1.5.1 2.2 2.2 1 3.2zm38.7 0l-6.7 5.6 2.1 8.4c.4 1.6-1.4 2.8-2.6 1.9l-7.4-4.6-7.4 4.4c-1.4.9-3.2-.4-2.6-1.9l2.1-8.4-6.7-5.4c-1.2-1.1-.5-3.2 1.1-3.2l8.6-.7 3.3-8.1c.5-1.6 2.8-1.6 3.3 0l3.3 8.1 8.6.7c1.7.1 2.3 2.2 1 3.2z" fill="#b289ef"/></svg>