<svg xmlns="http://www.w3.org/2000/svg" viewBox="0 0 285.06 100.03"><defs><style>.cls-1{fill:#ff3d6a}.cls-3{fill:#fff}</style></defs><g id="Layer_2" data-name="Layer 2"><g id="Layer_1-2" data-name="Layer 1"><path class="cls-1" d="M69.86 98.59h176c3.73 0 3.73-9 0-9H109.71c-13 0-27.11-.13-40.1-.13"/><path class="cls-1" d="M270.18 88.51l-6.86-.14-.23 11.51 6.85.15.09-4.3 9.22.19.06-2.92-9.22-.19.09-4.3zm14 4.59l-3.1-.1-.08 3 3.14.06.87-.84v-1.2zm-23.48-4.78L246.84 88l-3.17 3v.6h-1.93l-.08 4.09h1.92v.61l3 3.17 13.9.28zM70 98.59a31.12 31.12 0 0 1-14.77-3.65q-6.65-3.63-15.18-12.4a43.57 43.57 0 0 1-20.61-6.12A39.46 39.46 0 0 1 5.14 61.7 40.94 40.94 0 0 1 0 41.33 40.64 40.64 0 0 1 5.6 20.2 39.67 39.67 0 0 1 21 5.37 45.16 45.16 0 0 1 43.06 0 44.91 44.91 0 0 1 65 5.37a39.37 39.37 0 0 1 15.34 14.77 40.94 40.94 0 0 1 5.54 21.19 41.57 41.57 0 0 1-4 18.23 38.79 38.79 0 0 1-11.2 14 42 42 0 0 1-16.56 7.85 29.43 29.43 0 0 0 7.79 6.18 16.77 16.77 0 0 0 7.68 1.9m-54-32.26A29.45 29.45 0 0 0 27 68.34a32.44 32.44 0 0 0 16.11 4 31.92 31.92 0 0 0 15.93-4 29.57 29.57 0 0 0 11.2-11.14 31.23 31.23 0 0 0 4.1-15.87 31.24 31.24 0 0 0-4.1-15.88A29.57 29.57 0 0 0 59 14.31a31.92 31.92 0 0 0-15.93-4 32.44 32.44 0 0 0-16.11 4 29.45 29.45 0 0 0-11.32 11.14 31.24 31.24 0 0 0-4.1 15.88 31.23 31.23 0 0 0 4.1 15.87z"/><rect class="cls-1" x="34.94" y="17.6" width="15.5" height="5.25" rx="2.62" ry="2.62"/><rect class="cls-1" x="23.12" y="28.15" width="39.15" height="5.25" rx="2.62" ry="2.62"/><rect class="cls-1" x="18.44" y="38.7" width="49" height="5.25" rx="2.62" ry="2.62"/><rect class="cls-1" x="35.19" y="60.63" width="15.5" height="5.25" rx="2.62" ry="2.62"/><rect class="cls-1" x="23.37" y="49.67" width="39.15" height="5.25" rx="2.62" ry="2.62"/><path d="M143.08 72.68a4 4 0 0 1-5.18-1.93l-5.33-11.9a32.32 32.32 0 0 0-14.92-.23 34.84 34.84 0 0 0-11.6 4.56 67.08 67.08 0 0 0-10.82 8.42c-1.47 1.47-3.4 1.93-5 .93s-1.47-3.25-.7-5l24.43-53a3.93 3.93 0 0 1 3.56-2.25 3.85 3.85 0 0 1 3.48 2.2l24 53a4 4 0 0 1-1.92 5.2zm-25.66-47.3L102.58 57a50.24 50.24 0 0 1 13.83-5.25 40.92 40.92 0 0 1 12.68-.7zM153.6 72.84a3.88 3.88 0 0 1-3-4.56c1.16-6 3.09-10.9 5.88-14.69a23.8 23.8 0 0 1 3.78-4c-.46-.23-.85-.39-1.23-.62-5.8-3.32-8.89-9-8.89-16.23a25.21 25.21 0 0 1 1.54-9 17.92 17.92 0 0 1 4-6.18 20 20 0 0 1 13.32-5.4h23a3.88 3.88 0 0 1 3.8 3.84v53a3.93 3.93 0 0 1-3.86 3.87 3.88 3.88 0 0 1-3.87-3.87V19.89H169a13.67 13.67 0 0 0-5.88 1.62 10.51 10.51 0 0 0-3.55 3.56 16 16 0 0 0-1.7 7.65c0 4.56 1.62 7.58 5 9.51a22 22 0 0 0 9.51 2.39 13.42 13.42 0 0 1 3.94.24 3.73 3.73 0 0 1 3.09 4.14 3.85 3.85 0 0 1-3.78 3.56c-1.09 0-2.17-.08-3.17-.08a11.35 11.35 0 0 0-4.46 1.19 13.67 13.67 0 0 0-5.41 4.71 29.48 29.48 0 0 0-4.4 11.37 4 4 0 0 1-3.79 3.17c-.26 0-.5-.08-.8-.08zM244.42 72.92a4 4 0 0 1-3.79-3.17 29.64 29.64 0 0 0-4.41-11.37 13.61 13.61 0 0 0-5.41-4.71 11.27 11.27 0 0 0-4.48-1.24c-1 0-2.09.08-3.17.08a3.87 3.87 0 0 1-3.79-3.51 3.75 3.75 0 0 1 3.09-4.09 13.47 13.47 0 0 1 3.95-.24 21.87 21.87 0 0 0 9.5-2.39c3.41-1.93 5-4.95 5-9.51a16 16 0 0 0-1.7-7.65 10.45 10.45 0 0 0-3.56-3.56 13.61 13.61 0 0 0-5.87-1.62h-19.1v49.11a3.88 3.88 0 0 1-3.86 3.87 3.93 3.93 0 0 1-3.82-3.87V16a3.88 3.88 0 0 1 3.87-3.86h23a20 20 0 0 1 13.29 5.41 17.92 17.92 0 0 1 4 6.18 25 25 0 0 1 1.55 9c0 7.27-3.09 12.91-8.89 16.23-.39.23-.77.39-1.24.62a23.85 23.85 0 0 1 3.79 4c2.78 3.79 4.72 8.74 5.87 14.69a3.87 3.87 0 0 1-3 4.56c-.36.01-.59.09-.82.09z"/><path d="M275.61 13.44L247 13.25a.87.87 0 0 0-.57 1.53 25.74 25.74 0 0 1 3.8 4c1.88 2.72 3.17 5.14 3.54 12 .46 8.43-1.81 13.13-5.36 16.73A.87.87 0 0 0 249 49h5a.89.89 0 0 1 .84.61l1.77 5.72a1.3 1.3 0 0 1 0 .21 2.84 2.84 0 0 0 .88 2 2.91 2.91 0 0 0 4.11-.06l8.4-8.28a.87.87 0 0 1 .62-.25h4.16a8.64 8.64 0 0 0 8.64-8.64V21.22a7.77 7.77 0 0 0-7.81-7.78z" fill="#0aff8d"/><path class="cls-3" d="M267.4 30.26l-1.85 1.57.58 2.34a.49.49 0 0 1-.73.54l-2-1.27-2.05 1.22a.48.48 0 0 1-.73-.54l.59-2.34-1.86-1.52a.49.49 0 0 1 .29-.87l2.4-.2.92-2.24a.49.49 0 0 1 .93 0l.93 2.24 2.39.2a.49.49 0 0 1 .19.87zM278.19 30.26l-1.86 1.57.59 2.34a.49.49 0 0 1-.73.54l-2.05-1.27-2.05 1.22a.48.48 0 0 1-.73-.54l.58-2.34-1.85-1.52a.49.49 0 0 1 .29-.87l2.39-.2.93-2.19a.49.49 0 0 1 .93 0l.92 2.24 2.4.2a.48.48 0 0 1 .24.82z"/></g></g></svg>