<svg xmlns="http://www.w3.org/2000/svg" viewBox="0 0 62.8 62.1"><g data-name="Layer 2"><path d="M62.8 31.05a31.17 31.17 0 0 0-4.1-15.87A29.53 29.53 0 0 0 47.44 4a31.87 31.87 0 0 0-15.93-4 32.43 32.43 0 0 0-16.1 4A29.38 29.38 0 0 0 4.1 15.18 31.17 31.17 0 0 0 0 31.05a31.17 31.17 0 0 0 4.1 15.87 29.32 29.32 0 0 0 11.31 11.14 32.32 32.32 0 0 0 16.1 4 31.76 31.76 0 0 0 15.93-4A29.46 29.46 0 0 0 58.7 46.92a31.17 31.17 0 0 0 4.1-15.87zM26 7.33h10.27a2.63 2.63 0 1 1 0 5.25H26a2.63 2.63 0 0 1 0-5.25zM11.57 20.5a2.64 2.64 0 0 1 2.63-2.62h33.9a2.63 2.63 0 0 1 2.62 2.62 2.63 2.63 0 0 1-2.62 2.63H14.2a2.64 2.64 0 0 1-2.63-2.63zm25 35.11h-10.3a2.63 2.63 0 0 1 0-5.25h10.25a2.63 2.63 0 1 1 0 5.25zm11.83-11H14.45a2.63 2.63 0 1 1 0-5.25h33.9a2.63 2.63 0 0 1 0 5.25zm4.92-11H9.52a2.63 2.63 0 0 1 0-5.25h43.75a2.63 2.63 0 1 1 0 5.25z" fill="#0aff8d" data-name="Layer 1"/></g></svg>