<svg xmlns="http://www.w3.org/2000/svg" viewBox="0 0 140 140"><path d="M130.9 35.4c-6.1-10.6-14.5-18.8-25.1-24.8-10.6-6-22.5-9-35.5-9-13.2 0-25.2 3-35.9 9S15.3 24.9 9.2 35.4C3 45.9 0 57.7 0 70.8c0 13 3 24.8 9.1 35.4 6.1 10.6 14.5 18.8 25.2 24.8s22.7 9 35.9 9c13 0 24.9-3 35.5-9 10.6-6 19-14.3 25.1-24.8 6.2-10.6 9.2-22.4 9.2-35.4s-3-24.8-9.1-35.4zm-77.8-3.6h34.7c4.9 0 8.9 3.9 8.9 8.9s-3.9 8.9-8.9 8.9H53.1c-4.9 0-8.9-3.9-8.9-8.9-.1-5 4-8.9 8.9-8.9zm34.3 80H52.6c-4.9 0-8.9-3.9-8.9-8.9s4.1-8.9 8.9-8.9h34.7c4.9 0 8.9 3.9 8.9 8.9.1 5-3.8 8.9-8.8 8.9zm24-31H28.6c-4.9 0-8.9-3.9-8.9-8.9s4.1-8.9 8.9-8.9h82.7c4.9 0 8.9 3.9 8.9 8.9s-3.8 8.9-8.8 8.9z" fill="#966df3"/></svg>